999
dxfrw 0.5.10
0
SECTION
2
HEADER
9
$ACADVER
1
AC1021
9
$HANDSEED
5
20000
9
$DWGCODEPAGE
3
ANSI_1252
9
$INSBASE
10
0
20
0
30
0
9
$EXTMIN
10
-2.30511401222
20
-23.8342084396
30
0
9
$EXTMAX
10
301.25
20
200
30
0
9
$LIMMIN
10
0
20
0
9
$LIMMAX
10
420
20
297
9
$ORTHOMODE
70
0
9
$LTSCALE
40
1
9
$TEXTSTYLE
7
STANDARD
9
$CLAYER
8
0
9
$DIMASZ
40
2.5
9
$DIMLFAC
40
1
9
$DIMSCALE
40
1
9
$DIMEXO
40
0.625
9
$DIMEXE
40
1.25
9
$DIMTXT
40
2.5
9
$DIMTSZ
40
0
9
$DIMAUNIT
70
0
9
$DIMADEC
70
0
9
$DIMLUNIT
70
2
9
$DIMSTYLE
2
STANDARD
9
$DIMGAP
40
0.625
9
$DIMTIH
70
0
9
$LUNITS
70
2
9
$LUPREC
70
4
9
$AUNITS
70
0
9
$AUPREC
70
2
9
$SPLINESEGS
70
8
9
$GRIDMODE
70
1
9
$SNAPSTYLE
70
0
9
$PINSBASE
10
0
20
0
30
0
9
$PLIMMIN
10
0
20
0
9
$PLIMMAX
10
210
20
297
9
$INSUNITS
70
4
9
$PSVPSCALE
40
1
0
ENDSEC
0
SECTION
2
CLASSES
0
ENDSEC
0
SECTION
2
TABLES
0
TABLE
2
VPORT
5
8
330
0
100
AcDbSymbolTable
70
1
0
VPORT
5
31
330
2
100
AcDbSymbolTableRecord
100
AcDbViewportTableRecord
2
*ACTIVE
70
0
10
0
20
0
11
1
21
1
12
157.76
22
90.6880000002
13
0
23
0
14
10
24
10
15
10
25
10
16
0
26
0
36
1
17
0
27
0
37
0
40
100.864
41
1.91370558376
42
50
43
0
44
0
50
0
51
0
71
0
72
100
73
1
74
3
75
0
76
1
77
0
78
0
281
0
65
1
110
0
120
0
130
0
111
1
121
0
131
0
112
0
122
1
132
0
79
0
146
0
348
10020
60
7
61
5
292
1
282
1
141
0
142
0
63
250
421
3358443
0
ENDTAB
0
TABLE
2
LTYPE
5
5
330
0
100
AcDbSymbolTable
70
4
0
LTYPE
5
14
330
5
100
AcDbSymbolTableRecord
100
AcDbLinetypeTableRecord
2
ByBlock
70
0
3

72
65
73
0
40
0
0
LTYPE
5
15
330
5
100
AcDbSymbolTableRecord
100
AcDbLinetypeTableRecord
2
ByLayer
70
0
3

72
65
73
0
40
0
0
LTYPE
5
16
330
5
100
AcDbSymbolTableRecord
100
AcDbLinetypeTableRecord
2
Continuous
70
0
3
Solid line
72
65
73
0
40
0
0
LTYPE
5
32
330
5
100
AcDbSymbolTableRecord
100
AcDbLinetypeTableRecord
2
DOT
70
0
3
Dot . . . . . . . . . . . . . . . . . . . . . .
72
65
73
2
40
6.35
49
0
74
0
49
-6.35
74
0
0
LTYPE
5
33
330
5
100
AcDbSymbolTableRecord
100
AcDbLinetypeTableRecord
2
DOT2
70
0
3
Dot (.5x) .....................................
72
65
73
2
40
3.175
49
0
74
0
49
-3.175
74
0
0
LTYPE
5
34
330
5
100
AcDbSymbolTableRecord
100
AcDbLinetypeTableRecord
2
DOTX2
70
0
3
Dot (2x) .  .  .  .  .  .  .  .  .  .  .  .  .
72
65
73
2
40
12.7
49
0
74
0
49
-12.7
74
0
0
LTYPE
5
35
330
5
100
AcDbSymbolTableRecord
100
AcDbLinetypeTableRecord
2
DASHED
70
0
3
Dot . . . . . . . . . . . . . . . . . . . . . .
72
65
73
2
40
19.05
49
12.7
74
0
49
-6.35
74
0
0
LTYPE
5
36
330
5
100
AcDbSymbolTableRecord
100
AcDbLinetypeTableRecord
2
DASHED2
70
0
3
Dashed (.5x) _ _ _ _ _ _ _ _ _ _ _ _ _ _ _ _ _
72
65
73
2
40
9.525
49
6.35
74
0
49
-3.175
74
0
0
LTYPE
5
37
330
5
100
AcDbSymbolTableRecord
100
AcDbLinetypeTableRecord
2
DASHEDX2
70
0
3
Dashed (2x) ____  ____  ____  ____  ____  ___
72
65
73
2
40
38.1
49
25.4
74
0
49
-12.7
74
0
0
LTYPE
5
38
330
5
100
AcDbSymbolTableRecord
100
AcDbLinetypeTableRecord
2
DASHDOT
70
0
3
Dash dot __ . __ . __ . __ . __ . __ . __ . __
72
65
73
4
40
25.4
49
12.7
74
0
49
-6.35
74
0
49
0
74
0
49
-6.35
74
0
0
LTYPE
5
39
330
5
100
AcDbSymbolTableRecord
100
AcDbLinetypeTableRecord
2
DASHDOT2
70
0
3
Dash dot (.5x) _._._._._._._._._._._._._._._.
72
65
73
4
40
12.7
49
6.35
74
0
49
-3.175
74
0
49
0
74
0
49
-3.175
74
0
0
LTYPE
5
3A
330
5
100
AcDbSymbolTableRecord
100
AcDbLinetypeTableRecord
2
DASHDOTX2
70
0
3
Dash dot (2x) ____  .  ____  .  ____  .  ___
72
65
73
4
40
50.8
49
25.4
74
0
49
-12.7
74
0
49
0
74
0
49
-12.7
74
0
0
LTYPE
5
3B
330
5
100
AcDbSymbolTableRecord
100
AcDbLinetypeTableRecord
2
DIVIDE
70
0
3
Divide ____ . . ____ . . ____ . . ____ . . ____
72
65
73
6
40
31.75
49
12.7
74
0
49
-6.35
74
0
49
0
74
0
49
-6.35
74
0
49
0
74
0
49
-6.35
74
0
0
LTYPE
5
3C
330
5
100
AcDbSymbolTableRecord
100
AcDbLinetypeTableRecord
2
DIVIDE2
70
0
3
Divide (.5x) __..__..__..__..__..__..__..__.._
72
65
73
6
40
15.875
49
6.35
74
0
49
-3.175
74
0
49
0
74
0
49
-3.175
74
0
49
0
74
0
49
-3.175
74
0
0
LTYPE
5
3D
330
5
100
AcDbSymbolTableRecord
100
AcDbLinetypeTableRecord
2
DIVIDEX2
70
0
3
Divide (2x) ________  .  .  ________  .  .  _
72
65
73
6
40
63.5
49
25.4
74
0
49
-12.7
74
0
49
0
74
0
49
-12.7
74
0
49
0
74
0
49
-12.7
74
0
0
LTYPE
5
3E
330
5
100
AcDbSymbolTableRecord
100
AcDbLinetypeTableRecord
2
BORDER
70
0
3
Border __ __ . __ __ . __ __ . __ __ . __ __ .
72
65
73
6
40
44.45
49
12.7
74
0
49
-6.35
74
0
49
12.7
74
0
49
-6.35
74
0
49
0
74
0
49
-6.35
74
0
0
LTYPE
5
3F
330
5
100
AcDbSymbolTableRecord
100
AcDbLinetypeTableRecord
2
BORDER2
70
0
3
Border (.5x) __.__.__.__.__.__.__.__.__.__.__.
72
65
73
6
40
22.225
49
6.35
74
0
49
-3.175
74
0
49
6.35
74
0
49
-3.175
74
0
49
0
74
0
49
-3.175
74
0
0
LTYPE
5
40
330
5
100
AcDbSymbolTableRecord
100
AcDbLinetypeTableRecord
2
BORDERX2
70
0
3
Border (2x) ____  ____  .  ____  ____  .  ___
72
65
73
6
40
88.9
49
25.4
74
0
49
-12.7
74
0
49
25.4
74
0
49
-12.7
74
0
49
0
74
0
49
-12.7
74
0
0
LTYPE
5
41
330
5
100
AcDbSymbolTableRecord
100
AcDbLinetypeTableRecord
2
CENTER
70
0
3
Center ____ _ ____ _ ____ _ ____ _ ____ _ ____
72
65
73
4
40
50.8
49
31.75
74
0
49
-6.35
74
0
49
6.35
74
0
49
-6.35
74
0
0
LTYPE
5
42
330
5
100
AcDbSymbolTableRecord
100
AcDbLinetypeTableRecord
2
CENTER2
70
0
3
Center (.5x) ___ _ ___ _ ___ _ ___ _ ___ _ ___
72
65
73
4
40
28.575
49
19.05
74
0
49
-3.175
74
0
49
3.175
74
0
49
-3.175
74
0
0
LTYPE
5
43
330
5
100
AcDbSymbolTableRecord
100
AcDbLinetypeTableRecord
2
CENTERX2
70
0
3
Center (2x) ________  __  ________  __  _____
72
65
73
4
40
101.6
49
63.5
74
0
49
-12.7
74
0
49
12.7
74
0
49
-12.7
74
0
0
ENDTAB
0
TABLE
2
LAYER
5
2
330
0
100
AcDbSymbolTable
70
1
0
LAYER
5
10
330
2
100
AcDbSymbolTableRecord
100
AcDbLayerTableRecord
2
0
70
0
62
7
6
CONTINUOUS
370
0
390
F
0
ENDTAB
0
TABLE
2
STYLE
5
3
330
0
100
AcDbSymbolTable
70
3
0
STYLE
5
44
330
2
100
AcDbSymbolTableRecord
100
AcDbTextStyleTableRecord
2
STANDARD
70
0
40
0
41
1
50
0
71
0
42
1
3
STANDARD
4

0
ENDTAB
0
TABLE
2
VIEW
5
6
330
0
100
AcDbSymbolTable
70
0
0
ENDTAB
0
TABLE
2
UCS
5
7
330
0
100
AcDbSymbolTable
70
0
0
ENDTAB
0
TABLE
2
APPID
5
9
330
0
100
AcDbSymbolTable
70
1
0
APPID
5
12
330
9
100
AcDbSymbolTableRecord
100
AcDbRegAppTableRecord
2
ACAD
70
0
0
ENDTAB
0
TABLE
2
DIMSTYLE
5
A
330
0
100
AcDbSymbolTable
70
1
100
AcDbDimStyleTable
71
1
0
DIMSTYLE
105
45
330
A
100
AcDbSymbolTableRecord
100
AcDbDimStyleTableRecord
2
Standard
70
0
40
1
41
2.5
42
0.625
43
0.38
44
1.25
45
0
46
0
47
0
48
0
140
2.5
141
0.09
142
0
143
25.4
144
1
145
0
146
1
147
0.625
148
0
71
0
72
0
73
0
74
1
75
0
76
0
77
0
78
0
79
0
170
0
171
2
172
0
173
0
174
0
175
0
176
0
177
0
178
0
179
0
271
4
272
4
273
2
274
2
275
0
276
0
277
2
278
46
279
0
280
0
281
0
282
0
283
1
284
0
285
0
286
0
288
0
289
3
340
Standard
341

371
-2
372
-2
0
ENDTAB
0
TABLE
2
BLOCK_RECORD
5
1
330
0
100
AcDbSymbolTable
70
2
0
BLOCK_RECORD
5
1F
330
1
100
AcDbSymbolTableRecord
100
AcDbBlockTableRecord
2
*Model_Space
70
0
280
1
281
0
0
BLOCK_RECORD
5
1E
330
1
100
AcDbSymbolTableRecord
100
AcDbBlockTableRecord
2
*Paper_Space
70
0
280
1
281
0
0
BLOCK_RECORD
5
46
330
1
100
AcDbSymbolTableRecord
100
AcDbBlockTableRecord
2
*D6
70
0
280
1
281
0
0
BLOCK_RECORD
5
49
330
1
100
AcDbSymbolTableRecord
100
AcDbBlockTableRecord
2
*D9
70
0
280
1
281
0
0
BLOCK_RECORD
5
4C
330
1
100
AcDbSymbolTableRecord
100
AcDbBlockTableRecord
2
*D2
70
0
280
1
281
0
0
BLOCK_RECORD
5
4F
330
1
100
AcDbSymbolTableRecord
100
AcDbBlockTableRecord
2
*D3
70
0
280
1
281
0
0
BLOCK_RECORD
5
52
330
1
100
AcDbSymbolTableRecord
100
AcDbBlockTableRecord
2
*D5
70
0
280
1
281
0
0
BLOCK_RECORD
5
55
330
1
100
AcDbSymbolTableRecord
100
AcDbBlockTableRecord
2
*D7
70
0
280
1
281
0
0
BLOCK_RECORD
5
58
330
1
100
AcDbSymbolTableRecord
100
AcDbBlockTableRecord
2
*D8
70
0
280
1
281
0
0
BLOCK_RECORD
5
5B
330
1
100
AcDbSymbolTableRecord
100
AcDbBlockTableRecord
2
*D1
70
0
280
1
281
0
0
BLOCK_RECORD
5
5E
330
1
100
AcDbSymbolTableRecord
100
AcDbBlockTableRecord
2
*D4
70
0
280
1
281
0
0
ENDTAB
0
ENDSEC
0
SECTION
2
BLOCKS
0
BLOCK
5
20
330
1F
100
AcDbEntity
8
0
100
AcDbBlockBegin
2
*Model_Space
70
0
10
0
20
0
30
0
3
*Model_Space
1

0
ENDBLK
5
21
330
1F
100
AcDbEntity
8
0
100
AcDbBlockEnd
0
BLOCK
5
1C
330
1B
100
AcDbEntity
8
0
100
AcDbBlockBegin
2
*Paper_Space
70
0
10
0
20
0
30
0
3
*Paper_Space
1

0
ENDBLK
5
1D
330
1F
100
AcDbEntity
8
0
100
AcDbBlockEnd
0
BLOCK
5
47
330
46
100
AcDbEntity
8
0
100
AcDbBlockBegin
2
*D6
70
1
10
0
20
0
3
*D6
1

0
LINE
5
61
100
AcDbEntity
8
0
6
CONTINUOUS
62
7
370
0
100
AcDbLine
10
220
20
100
11
280
21
100
0
SOLID
5
62
100
AcDbEntity
8
0
6
CONTINUOUS
62
7
370
0
100
AcDbTrace
10
220
20
100
30
0
11
222.5
21
100.416284658
31
0
12
222.5
22
99.5837153422
32
0
13
222.5
23
99.5837153422
33
0
0
SOLID
5
63
100
AcDbEntity
8
0
6
CONTINUOUS
62
7
370
0
100
AcDbTrace
10
280
20
100
30
0
11
277.5
21
99.5837153422
31
0
12
277.5
22
100.416284658
32
0
13
277.5
23
100.416284658
33
0
0
MTEXT
5
64
100
AcDbEntity
8
0
6
CONTINUOUS
62
7
370
0
100
AcDbMText
10
250
20
101.875
30
0
40
2.5
41
3.05555555556
71
5
72
1
1
60
7
standard
210
0
220
0
230
1
50
0
73
2
44
1
0
LINE
5
65
100
AcDbEntity
8
0
6
CONTINUOUS
62
7
370
0
100
AcDbLine
10
220
20
119.375
11
220
21
98.75
0
LINE
5
66
100
AcDbEntity
8
0
6
CONTINUOUS
62
7
370
0
100
AcDbLine
10
280
20
119.375
11
280
21
98.75
0
ENDBLK
5
48
330
46
100
AcDbEntity
8
0
100
AcDbBlockEnd
0
BLOCK
5
4A
330
49
100
AcDbEntity
8
0
100
AcDbBlockBegin
2
*D9
70
1
10
0
20
0
3
*D9
1

0
LINE
5
67
100
AcDbEntity
8
0
6
CONTINUOUS
62
7
370
0
100
AcDbLine
10
18.5927668419
20
55.4348841882
11
91.8323472415
21
12.586735303
0
SOLID
5
68
100
AcDbEntity
8
0
6
CONTINUOUS
62
7
370
0
100
AcDbTrace
10
18.5927668419
20
55.4348841882
30
0
11
20.9608200523
21
54.5317690743
31
0
12
20.5403972942
22
53.8131479156
32
0
13
20.5403972942
23
53.8131479156
33
0
0
SOLID
5
69
100
AcDbEntity
8
0
6
CONTINUOUS
62
7
370
0
100
AcDbTrace
10
91.8323472415
20
12.586735303
30
0
11
89.4642940311
21
13.4898504169
31
0
12
89.8847167892
22
14.2084715756
32
0
13
89.8847167892
23
14.2084715756
33
0
0
MTEXT
5
6A
100
AcDbEntity
8
0
6
CONTINUOUS
62
7
370
0
100
AcDbMText
10
56.1593763116
20
35.6291911191
30
0
40
2.5
41
8.33333333333
71
5
72
1
1
%%C40ø
7
standard
210
0
220
0
230
1
50
329.670620676
73
2
44
1
0
ENDBLK
5
4B
330
49
100
AcDbEntity
8
0
100
AcDbBlockEnd
0
BLOCK
5
4D
330
4C
100
AcDbEntity
8
0
100
AcDbBlockBegin
2
*D2
70
1
10
0
20
0
3
*D2
1

0
LINE
5
6B
100
AcDbEntity
8
0
6
CONTINUOUS
62
7
370
0
100
AcDbLine
10
74.1886116992
20
135.811388301
11
65.25
21
144.25
0
LINE
5
6C
100
AcDbEntity
8
0
6
CONTINUOUS
62
7
370
0
100
AcDbLine
10
65.25
20
144.25
11
44.5
21
144.25
0
SOLID
5
6D
100
AcDbEntity
8
0
6
CONTINUOUS
62
7
370
0
100
AcDbTrace
10
74.1886116992
20
135.811388301
30
0
11
72.0849628287
21
137.22487843
31
0
12
72.656502414
22
137.830282566
32
0
13
72.656502414
23
137.830282566
33
0
0
ENDBLK
5
4E
330
4C
100
AcDbEntity
8
0
100
AcDbBlockEnd
0
BLOCK
5
50
330
4F
100
AcDbEntity
8
0
100
AcDbBlockBegin
2
*D3
70
1
10
0
20
0
3
*D3
1

0
LINE
5
6E
100
AcDbEntity
8
0
6
CONTINUOUS
62
7
370
0
100
AcDbLine
10
180
20
170
11
180
21
150
0
SOLID
5
6F
100
AcDbEntity
8
0
6
CONTINUOUS
62
7
370
0
100
AcDbTrace
10
180
20
170
30
0
11
180.416284658
21
167.5
31
0
12
179.583715342
22
167.5
32
0
13
179.583715342
23
167.5
33
0
0
SOLID
5
70
100
AcDbEntity
8
0
6
CONTINUOUS
62
7
370
0
100
AcDbTrace
10
180
20
150
30
0
11
179.583715342
21
152.5
31
0
12
180.416284658
22
152.5
32
0
13
180.416284658
23
152.5
33
0
0
MTEXT
5
71
100
AcDbEntity
8
0
6
CONTINUOUS
62
7
370
0
100
AcDbMText
10
178.125
20
160
30
0
40
2.5
41
3.05555555556
71
5
72
1
1
20
7
standard
210
0
220
0
230
1
50
90
73
2
44
1
0
LINE
5
72
100
AcDbEntity
8
0
6
CONTINUOUS
62
7
370
0
100
AcDbLine
10
189.375
20
170
11
178.75
21
170
0
LINE
5
73
100
AcDbEntity
8
0
6
CONTINUOUS
62
7
370
0
100
AcDbLine
10
189.375
20
150
11
178.75
21
150
0
ENDBLK
5
51
330
4F
100
AcDbEntity
8
0
100
AcDbBlockEnd
0
BLOCK
5
53
330
52
100
AcDbEntity
8
0
100
AcDbBlockBegin
2
*D5
70
1
10
0
20
0
3
*D5
1

0
LINE
5
74
100
AcDbEntity
8
0
6
CONTINUOUS
62
7
370
0
100
AcDbLine
10
300
20
180
11
300
21
120
0
SOLID
5
75
100
AcDbEntity
8
0
6
CONTINUOUS
62
7
370
0
100
AcDbTrace
10
300
20
180
30
0
11
300.416284658
21
177.5
31
0
12
299.583715342
22
177.5
32
0
13
299.583715342
23
177.5
33
0
0
SOLID
5
76
100
AcDbEntity
8
0
6
CONTINUOUS
62
7
370
0
100
AcDbTrace
10
300
20
120
30
0
11
299.583715342
21
122.5
31
0
12
300.416284658
22
122.5
32
0
13
300.416284658
23
122.5
33
0
0
MTEXT
5
77
100
AcDbEntity
8
0
6
CONTINUOUS
62
7
370
0
100
AcDbMText
10
298.125
20
150
30
0
40
2.5
41
3.05555555556
71
5
72
1
1
60
7
standard
210
0
220
0
230
1
50
90
73
2
44
1
0
LINE
5
78
100
AcDbEntity
8
0
6
CONTINUOUS
62
7
370
0
100
AcDbLine
10
280.625
20
180
11
301.25
21
180
0
LINE
5
79
100
AcDbEntity
8
0
6
CONTINUOUS
62
7
370
0
100
AcDbLine
10
280.625
20
120
11
301.25
21
120
0
ENDBLK
5
54
330
52
100
AcDbEntity
8
0
100
AcDbBlockEnd
0
BLOCK
5
56
330
55
100
AcDbEntity
8
0
100
AcDbBlockBegin
2
*D7
70
1
10
0
20
0
3
*D7
1

0
LINE
5
7A
100
AcDbEntity
8
0
6
CONTINUOUS
62
7
370
0
100
AcDbLine
10
217.071067812
20
117.071067812
11
202.928932188
21
102.928932188
0
SOLID
5
7B
100
AcDbEntity
8
0
6
CONTINUOUS
62
7
370
0
100
AcDbTrace
10
217.071067812
20
117.071067812
30
0
11
215.597658563
21
115.008943155
31
0
12
215.008943155
22
115.597658563
32
0
13
215.008943155
23
115.597658563
33
0
0
SOLID
5
7C
100
AcDbEntity
8
0
6
CONTINUOUS
62
7
370
0
100
AcDbTrace
10
202.928932188
20
102.928932188
30
0
11
204.402341437
21
104.991056845
31
0
12
204.991056845
22
104.402341437
32
0
13
204.991056845
23
104.402341437
33
0
0
MTEXT
5
7D
100
AcDbEntity
8
0
6
CONTINUOUS
62
7
370
0
100
AcDbMText
10
208.674174785
20
111.325825215
30
0
40
2.5
41
3.05555555556
71
5
72
1
1
20
7
standard
210
0
220
0
230
1
50
45
73
2
44
1
0
ENDBLK
5
57
330
55
100
AcDbEntity
8
0
100
AcDbBlockEnd
0
BLOCK
5
59
330
58
100
AcDbEntity
8
0
100
AcDbBlockBegin
2
*D8
70
1
10
0
20
0
3
*D8
1

0
LINE
5
7E
100
AcDbEntity
8
0
6
CONTINUOUS
62
7
370
0
100
AcDbLine
10
0.929713294914
20
11.8386242331
11
7.61320921001
21
15.6973423988
0
SOLID
5
7F
100
AcDbEntity
8
0
6
CONTINUOUS
62
7
370
0
100
AcDbTrace
10
0.929713294914
20
11.8386242331
30
0
11
2.88663447549
21
13.4491373219
31
0
12
3.30291913326
22
12.7281111443
32
0
13
3.30291913326
23
12.7281111443
33
0
0
SOLID
5
80
100
AcDbEntity
8
0
6
CONTINUOUS
62
7
370
0
100
AcDbTrace
10
7.61320921001
20
15.6973423988
30
0
11
5.65628802943
21
14.08682931
31
0
12
5.24000337166
22
14.8078554877
32
0
13
5.24000337166
23
14.8078554877
33
0
0
MTEXT
5
81
100
AcDbEntity
8
0
6
CONTINUOUS
62
7
370
0
100
AcDbMText
10
11.3065394941
20
19.9947511421
30
0
40
2.5
41
9.44444444444
71
5
72
1
1
7.7174
7
standard
210
0
220
0
230
1
50
30
73
2
44
1
0
LINE
5
82
100
AcDbEntity
8
0
6
CONTINUOUS
62
7
370
0
100
AcDbLine
10
-1.99259727075
20
16.9002146083
11
1.55471329491
21
10.7560924784
0
LINE
5
83
100
AcDbEntity
8
0
6
CONTINUOUS
62
7
370
0
100
AcDbLine
10
11.1220955872
20
9.61977291553
11
8.23820921001
21
14.6148106441
0
ENDBLK
5
5A
330
58
100
AcDbEntity
8
0
100
AcDbBlockEnd
0
BLOCK
5
5C
330
5B
100
AcDbEntity
8
0
100
AcDbBlockBegin
2
*D1
70
1
10
0
20
0
3
*D1
1

0
LINE
5
84
100
AcDbEntity
8
0
6
CONTINUOUS
62
7
370
0
100
AcDbLine
10
200
20
190
11
190
21
180
0
LINE
5
85
100
AcDbEntity
8
0
6
CONTINUOUS
62
7
370
0
100
AcDbLine
10
190
20
180
11
190
21
150
0
SOLID
5
86
100
AcDbEntity
8
0
6
CONTINUOUS
62
7
370
0
100
AcDbTrace
10
200
20
190
30
0
11
198.526590751
21
187.937875343
31
0
12
197.937875343
22
188.526590751
32
0
13
197.937875343
23
188.526590751
33
0
0
ENDBLK
5
5D
330
5B
100
AcDbEntity
8
0
100
AcDbBlockEnd
0
BLOCK
5
5F
330
5E
100
AcDbEntity
8
0
100
AcDbBlockBegin
2
*D4
70
1
10
0
20
0
3
*D4
1

0
LINE
5
87
100
AcDbEntity
8
0
6
CONTINUOUS
62
7
370
0
100
AcDbLine
10
282.928932188
20
197.071067812
11
297.071067812
21
182.928932188
0
SOLID
5
88
100
AcDbEntity
8
0
6
CONTINUOUS
62
7
370
0
100
AcDbTrace
10
282.928932188
20
197.071067812
30
0
11
284.991056845
21
195.597658563
31
0
12
284.402341437
22
195.008943155
32
0
13
284.402341437
23
195.008943155
33
0
0
SOLID
5
89
100
AcDbEntity
8
0
6
CONTINUOUS
62
7
370
0
100
AcDbTrace
10
297.071067812
20
182.928932188
30
0
11
295.008943155
21
184.402341437
31
0
12
295.597658563
22
184.991056845
32
0
13
295.597658563
23
184.991056845
33
0
0
MTEXT
5
8A
100
AcDbEntity
8
0
6
CONTINUOUS
62
7
370
0
100
AcDbMText
10
291.325825215
20
191.325825215
30
0
40
2.5
41
3.05555555556
71
5
72
1
1
20
7
standard
210
0
220
0
230
1
50
315
73
2
44
1
0
ENDBLK
5
60
330
5E
100
AcDbEntity
8
0
100
AcDbBlockEnd
0
ENDSEC
0
SECTION
2
ENTITIES
0
LINE
5
8B
100
AcDbEntity
8
0
6
ByLayer
62
256
370
-1
100
AcDbLine
10
20
20
180
11
20
21
180
0
LINE
5
8C
100
AcDbEntity
8
0
6
ByLayer
62
256
370
-1
100
AcDbLine
10
20
20
190
11
20
21
190
0
LINE
5
8D
100
AcDbEntity
8
0
6
ByLayer
62
256
370
-1
100
AcDbLine
10
20
20
190
11
20
21
180
0
LINE
5
8E
100
AcDbEntity
8
0
6
ByLayer
62
256
370
-1
100
AcDbLine
10
10
20
180
11
10
21
180
0
LINE
5
8F
100
AcDbEntity
8
0
6
ByLayer
62
256
370
-1
100
AcDbLine
10
10
20
180
11
20
21
180
0
LINE
5
90
100
AcDbEntity
8
0
6
ByLayer
62
256
370
-1
100
AcDbLine
10
20
20
180
11
20
21
180
0
LINE
5
91
100
AcDbEntity
8
0
6
ByLayer
62
256
370
-1
100
AcDbLine
10
90
20
120
11
90
21
120
0
LINE
5
92
100
AcDbEntity
8
0
6
ByLayer
62
256
370
-1
100
AcDbLine
10
90
20
110
11
90
21
110
0
LINE
5
93
100
AcDbEntity
8
0
6
ByLayer
62
256
370
-1
100
AcDbLine
10
90
20
110
11
90
21
120
0
LINE
5
94
100
AcDbEntity
8
0
6
ByLayer
62
256
370
-1
100
AcDbLine
10
100
20
120
11
100
21
120
0
LINE
5
95
100
AcDbEntity
8
0
6
ByLayer
62
256
370
-1
100
AcDbLine
10
100
20
120
11
90
21
120
0
LINE
5
96
100
AcDbEntity
8
0
6
ByLayer
62
256
370
-1
100
AcDbLine
10
90
20
120
11
90
21
120
0
LINE
5
97
100
AcDbEntity
8
0
6
ByLayer
62
256
370
-1
100
AcDbLine
10
210
20
200
11
210
21
190
0
LEADER
5
98
100
AcDbEntity
8
0
6
ByLayer
62
256
370
-1
100
AcDbLeader
3
Standard
71
1
72
0
73
3
74
0
75
0
40
1
41
10
76
3
76
3
10
200
20
190
30
0
10
190
20
180
30
0
10
190
20
150
30
0
0
LEADER
5
99
100
AcDbEntity
8
0
6
ByLayer
62
256
370
-1
100
AcDbLeader
3
Standard
71
1
72
0
73
3
74
0
75
0
40
1
41
10
76
3
76
3
10
74.1886116992
20
135.811388301
30
0
10
65.25
20
144.25
30
0
10
44.5
20
144.25
30
0
0
LINE
5
9A
100
AcDbEntity
8
0
6
ByLayer
62
256
370
50
100
AcDbLine
10
95
20
114.75
11
15
21
114.75
0
LINE
5
9B
100
AcDbEntity
8
0
6
ByLayer
62
256
370
50
100
AcDbLine
10
95
20
185.75
11
95
21
114.75
0
LINE
5
9C
100
AcDbEntity
8
0
6
ByLayer
62
256
370
50
100
AcDbLine
10
15
20
185.75
11
95
21
185.75
0
LINE
5
9D
100
AcDbEntity
8
0
6
ByLayer
62
256
370
50
100
AcDbLine
10
20
20
180
11
90
21
180
0
LINE
5
9E
100
AcDbEntity
8
0
6
ByLayer
62
256
370
50
100
AcDbLine
10
20
20
180
11
20
21
190
0
LINE
5
9F
100
AcDbEntity
8
0
6
ByLayer
62
256
370
50
100
AcDbLine
10
15
20
114.75
11
15
21
185.75
0
LINE
5
A0
100
AcDbEntity
8
0
6
ByLayer
62
256
370
50
100
AcDbLine
10
90
20
180
11
90
21
120
0
LINE
5
A1
100
AcDbEntity
8
0
6
ByLayer
62
256
370
50
100
AcDbLine
10
90
20
120
11
20
21
120
0
ARC
5
A2
100
AcDbEntity
8
0
6
ByLayer
62
256
370
50
100
AcDbCircle
10
90
20
120
40
22.3607
100
AcDbArc
50
90
51
180
0
LINE
5
A3
100
AcDbEntity
8
0
6
ByLayer
62
256
370
50
100
AcDbLine
10
20
20
120
11
20
21
180
0
LINE
5
A4
100
AcDbEntity
8
0
6
ByLayer
62
256
370
50
100
AcDbLine
10
20
20
180
11
10
21
180
0
LINE
5
A5
100
AcDbEntity
8
0
6
ByLayer
62
256
370
50
100
AcDbLine
10
90
20
120
11
100
21
120
0
LINE
5
A6
100
AcDbEntity
8
0
6
ByLayer
62
256
370
50
100
AcDbLine
10
90
20
120
11
90
21
110
0
DIMENSION
5
A7
100
AcDbEntity
8
0
6
ByLayer
62
256
370
40
100
AcDbDimension
2
*D3
10
180
20
150
30
0
11
178.125
21
160
31
0
70
32
71
5
72
0
3
Standard
53
0
210
0
220
0
230
1
100
AcDbAlignedDimension
13
190
23
170
33
0
14
190
24
150
34
0
50
90
100
AcDbRotatedDimension
0
CIRCLE
5
A8
100
AcDbEntity
8
0
6
ByLayer
62
256
370
50
100
AcDbCircle
10
210
20
190
40
10
0
LINE
5
A9
100
AcDbEntity
8
0
6
ByLayer
62
256
370
50
100
AcDbLine
10
210
20
110
11
210
21
190
0
LINE
5
AA
100
AcDbEntity
8
0
6
ByLayer
62
256
370
50
100
AcDbLine
10
210
20
190
11
290
21
190
0
LINE
5
AB
100
AcDbEntity
8
0
6
ByLayer
62
256
370
50
100
AcDbLine
10
210
20
190
11
210
21
200
0
LINE
5
AC
100
AcDbEntity
8
0
6
ByLayer
62
256
370
50
100
AcDbLine
10
210
20
190
11
200
21
190
0
CIRCLE
5
AD
100
AcDbEntity
8
0
6
ByLayer
62
256
370
50
100
AcDbCircle
10
290
20
190
40
10
0
DIMENSION
5
AE
100
AcDbEntity
8
0
6
ByLayer
62
256
370
40
100
AcDbDimension
2
*D4
10
282.928932188
20
197.071067812
30
0
11
291.325825215
21
191.325825215
31
0
70
35
71
5
72
0
3
Standard
53
0
210
0
220
0
230
1
100
AcDbDiametricDimension
15
297.071067812
25
182.928932188
35
0
40
0
0
LINE
5
AF
100
AcDbEntity
8
0
6
ByLayer
62
256
370
50
100
AcDbLine
10
290
20
190
11
300
21
190
0
LINE
5
B0
100
AcDbEntity
8
0
6
ByLayer
62
256
370
50
100
AcDbLine
10
290
20
190
11
290
21
200
0
LINE
5
B1
100
AcDbEntity
8
0
6
ByLayer
62
256
370
50
100
AcDbLine
10
290
20
190
11
290
21
110
0
DIMENSION
5
B2
100
AcDbEntity
8
0
6
ByLayer
62
256
370
40
100
AcDbDimension
2
*D5
10
300
20
120
30
0
11
298.125
21
150
31
0
70
32
71
5
72
0
3
Standard
53
0
210
0
220
0
230
1
100
AcDbAlignedDimension
13
280
23
180
33
0
14
280
24
120
34
0
50
90
100
AcDbRotatedDimension
0
LINE
5
B3
100
AcDbEntity
8
0
6
ByLayer
62
256
370
50
100
AcDbLine
10
280
20
180
11
280
21
120
0
LINE
5
B4
100
AcDbEntity
8
0
6
ByLayer
62
256
370
50
100
AcDbLine
10
220
20
180
11
280
21
180
0
LINE
5
B5
100
AcDbEntity
8
0
6
ByLayer
62
256
370
50
100
AcDbLine
10
220
20
120
11
220
21
180
0
LINE
5
B6
100
AcDbEntity
8
0
6
ByLayer
62
256
370
50
100
AcDbLine
10
280
20
120
11
220
21
120
0
LINE
5
B7
100
AcDbEntity
8
0
6
ByLayer
62
256
370
50
100
AcDbLine
10
290
20
110
11
210
21
110
0
CIRCLE
5
B8
100
AcDbEntity
8
0
6
ByLayer
62
256
370
50
100
AcDbCircle
10
290
20
110
40
10
0
CIRCLE
5
B9
100
AcDbEntity
8
0
6
ByLayer
62
256
370
50
100
AcDbCircle
10
210
20
110
40
10
0
DIMENSION
5
BA
100
AcDbEntity
8
0
6
ByLayer
62
256
370
40
100
AcDbDimension
2
*D6
10
280
20
100
30
0
11
250
21
101.875
31
0
70
32
71
5
72
0
3
Standard
53
0
210
0
220
0
230
1
100
AcDbAlignedDimension
13
220
23
120
33
0
14
280
24
120
34
0
100
AcDbRotatedDimension
0
LINE
5
BB
100
AcDbEntity
8
0
6
ByLayer
62
256
370
50
100
AcDbLine
10
290
20
110
11
300
21
110
0
LINE
5
BC
100
AcDbEntity
8
0
6
ByLayer
62
256
370
50
100
AcDbLine
10
290
20
110
11
290
21
100
0
LINE
5
BD
100
AcDbEntity
8
0
6
ByLayer
62
256
370
50
100
AcDbLine
10
210
20
110
11
210
21
100
0
LINE
5
BE
100
AcDbEntity
8
0
6
ByLayer
62
256
370
50
100
AcDbLine
10
210
20
110
11
200
21
110
0
DIMENSION
5
BF
100
AcDbEntity
8
0
6
ByLayer
62
256
370
40
100
AcDbDimension
2
*D7
10
217.071067812
20
117.071067812
30
0
11
208.674174785
21
111.325825215
31
0
70
35
71
5
72
0
3
Standard
53
0
210
0
220
0
230
1
100
AcDbDiametricDimension
15
202.928932188
25
102.928932188
35
0
40
0
0
MTEXT
5
C0
100
AcDbEntity
8
0
6
ByLayer
62
256
370
40
100
AcDbMText
10
47
20
154.75
30
0
40
8
41
18.6666666667
71
1
72
1
1
90.0
7
STANDARD
210
0
220
0
230
1
50
0
73
2
44
1
0
LINE
5
C1
100
AcDbEntity
8
0
6
ByLayer
62
256
370
50
100
AcDbLine
10
38.8684996921
20
91.6092555526
11
-2.30511401222
21
17.4414464197
0
LINE
5
C2
100
AcDbEntity
8
0
6
ByLayer
62
256
370
50
100
AcDbLine
10
51.9829641433
20
84.3291368092
11
10.8096110607
21
10.1610162661
0
DIMENSION
5
C3
100
AcDbEntity
8
0
6
ByLayer
62
256
370
40
100
AcDbDimension
2
*D8
10
7.61320920998
20
15.6973423988
30
0
11
3.33396125244
21
15.3917809481
31
0
70
32
71
5
72
0
3
Standard
53
0
210
0
220
0
230
1
100
AcDbAlignedDimension
13
-2.30509727075
23
17.4414804857
33
0
14
10.8095955872
24
10.1610387929
34
0
50
30
100
AcDbRotatedDimension
0
CIRCLE
5
C4
100
AcDbEntity
8
0
6
ByLayer
62
256
370
50
100
AcDbCircle
10
55.2124942562
20
34.0108265689
40
42.4264
0
LINE
5
C5
100
AcDbEntity
8
0
6
ByLayer
62
256
370
50
100
AcDbLine
10
71.9985770278
20
-23.8331216516
11
34.6203802589
21
-3.08318575248
0
LINE
5
C6
100
AcDbEntity
8
0
6
ByLayer
62
256
370
50
100
AcDbLine
10
113.185119061
20
50.3538949597
11
72.0004746558
21
-23.8342084396
0
LINE
5
C7
100
AcDbEntity
8
0
6
ByLayer
62
256
370
50
100
AcDbLine
10
113.172190857
20
50.3602872645
11
75.804744856
21
71.1048022878
0
DIMENSION
5
C8
100
AcDbEntity
8
0
6
ByLayer
62
256
370
40
100
AcDbDimension
2
*D9
10
18.5927668419
20
55.4348841882
30
0
11
56.1593763116
21
35.6291911191
31
0
70
35
1
%%C40ø
71
5
72
0
3
Standard
53
0
210
0
220
0
230
1
100
AcDbDiametricDimension
15
91.8323472415
25
12.586735303
35
0
40
0
0
LINE
5
C9
100
AcDbEntity
8
0
6
ByLayer
62
256
370
-1
100
AcDbLine
10
221
20
150
11
279
21
150
0
LINE
5
CA
100
AcDbEntity
8
0
6
ByLayer
62
256
370
-1
100
AcDbLine
10
250
20
179
11
250
21
121
0
ENDSEC
0
SECTION
2
OBJECTS
0
DICTIONARY
5
C
330
0
100
AcDbDictionary
281
1
3
ACAD_GROUP
350
D
0
DICTIONARY
5
D
330
C
100
AcDbDictionary
281
1
0
ENDSEC
0
EOF
